<mxfile host="Electron" modified="2025-03-21T22:44:51.962Z" agent="Mozilla/5.0 (Windows NT 10.0; Win64; x64) AppleWebKit/537.36 (KHTML, like Gecko) draw.io/21.6.8 Chrome/114.0.5735.289 Electron/25.5.0 Safari/537.36" etag="mWAsO1LGmwr4wHfAm7KN" version="21.6.8" type="device">
  <diagram id="C5RBs43oDa-KdzZeNtuy" name="Page-1">
    <mxGraphModel dx="1658" dy="820" grid="1" gridSize="10" guides="1" tooltips="1" connect="1" arrows="1" fold="1" page="1" pageScale="1" pageWidth="827" pageHeight="1169" math="0" shadow="0">
      <root>
        <mxCell id="WIyWlLk6GJQsqaUBKTNV-0" />
        <mxCell id="WIyWlLk6GJQsqaUBKTNV-1" parent="WIyWlLk6GJQsqaUBKTNV-0" />
        <mxCell id="FTZSIhkdupkuuKpnyyNk-0" value="Cart" style="swimlane;fontStyle=1;align=center;verticalAlign=top;childLayout=stackLayout;horizontal=1;startSize=25.454545454545453;horizontalStack=0;resizeParent=1;resizeParentMax=0;resizeLast=0;collapsible=0;marginBottom=0;" vertex="1" parent="WIyWlLk6GJQsqaUBKTNV-1">
          <mxGeometry x="38" y="120" width="420" height="283.45454545454544" as="geometry" />
        </mxCell>
        <mxCell id="FTZSIhkdupkuuKpnyyNk-1" value="+Long id" style="text;strokeColor=none;fillColor=none;align=left;verticalAlign=top;spacingLeft=4;spacingRight=4;overflow=hidden;rotatable=0;points=[[0,0.5],[1,0.5]];portConstraint=eastwest;" vertex="1" parent="FTZSIhkdupkuuKpnyyNk-0">
          <mxGeometry y="25.454545454545453" width="420" height="25" as="geometry" />
        </mxCell>
        <mxCell id="FTZSIhkdupkuuKpnyyNk-2" value="+List products" style="text;strokeColor=none;fillColor=none;align=left;verticalAlign=top;spacingLeft=4;spacingRight=4;overflow=hidden;rotatable=0;points=[[0,0.5],[1,0.5]];portConstraint=eastwest;" vertex="1" parent="FTZSIhkdupkuuKpnyyNk-0">
          <mxGeometry y="50.45454545454545" width="420" height="25" as="geometry" />
        </mxCell>
        <mxCell id="FTZSIhkdupkuuKpnyyNk-3" value="+User user" style="text;strokeColor=none;fillColor=none;align=left;verticalAlign=top;spacingLeft=4;spacingRight=4;overflow=hidden;rotatable=0;points=[[0,0.5],[1,0.5]];portConstraint=eastwest;" vertex="1" parent="FTZSIhkdupkuuKpnyyNk-0">
          <mxGeometry y="75.45454545454545" width="420" height="25" as="geometry" />
        </mxCell>
        <mxCell id="FTZSIhkdupkuuKpnyyNk-4" value="+double totalPrice" style="text;strokeColor=none;fillColor=none;align=left;verticalAlign=top;spacingLeft=4;spacingRight=4;overflow=hidden;rotatable=0;points=[[0,0.5],[1,0.5]];portConstraint=eastwest;" vertex="1" parent="FTZSIhkdupkuuKpnyyNk-0">
          <mxGeometry y="100.45454545454545" width="420" height="25" as="geometry" />
        </mxCell>
        <mxCell id="FTZSIhkdupkuuKpnyyNk-5" style="line;strokeWidth=1;fillColor=none;align=left;verticalAlign=middle;spacingTop=-1;spacingLeft=3;spacingRight=3;rotatable=0;labelPosition=right;points=[];portConstraint=eastwest;strokeColor=inherit;" vertex="1" parent="FTZSIhkdupkuuKpnyyNk-0">
          <mxGeometry y="125.45454545454545" width="420" height="8" as="geometry" />
        </mxCell>
        <mxCell id="FTZSIhkdupkuuKpnyyNk-6" value="+addItemsToCart(Long userId, Long productId, int quantity)" style="text;strokeColor=none;fillColor=none;align=left;verticalAlign=top;spacingLeft=4;spacingRight=4;overflow=hidden;rotatable=0;points=[[0,0.5],[1,0.5]];portConstraint=eastwest;" vertex="1" parent="FTZSIhkdupkuuKpnyyNk-0">
          <mxGeometry y="133.45454545454544" width="420" height="25" as="geometry" />
        </mxCell>
        <mxCell id="FTZSIhkdupkuuKpnyyNk-7" value="+getCartItems(Long userId)" style="text;strokeColor=none;fillColor=none;align=left;verticalAlign=top;spacingLeft=4;spacingRight=4;overflow=hidden;rotatable=0;points=[[0,0.5],[1,0.5]];portConstraint=eastwest;" vertex="1" parent="FTZSIhkdupkuuKpnyyNk-0">
          <mxGeometry y="158.45454545454544" width="420" height="25" as="geometry" />
        </mxCell>
        <mxCell id="FTZSIhkdupkuuKpnyyNk-8" value="+removeItemsFromCart(Long userId, Long cartItemId)" style="text;strokeColor=none;fillColor=none;align=left;verticalAlign=top;spacingLeft=4;spacingRight=4;overflow=hidden;rotatable=0;points=[[0,0.5],[1,0.5]];portConstraint=eastwest;" vertex="1" parent="FTZSIhkdupkuuKpnyyNk-0">
          <mxGeometry y="183.45454545454544" width="420" height="25" as="geometry" />
        </mxCell>
        <mxCell id="FTZSIhkdupkuuKpnyyNk-9" value="+updateItemQuantityInCart(Long userId, Long cartItemId, int updateQuantity)" style="text;strokeColor=none;fillColor=none;align=left;verticalAlign=top;spacingLeft=4;spacingRight=4;overflow=hidden;rotatable=0;points=[[0,0.5],[1,0.5]];portConstraint=eastwest;" vertex="1" parent="FTZSIhkdupkuuKpnyyNk-0">
          <mxGeometry y="208.45454545454544" width="420" height="25" as="geometry" />
        </mxCell>
        <mxCell id="FTZSIhkdupkuuKpnyyNk-10" value="+clearCart(Long userId)" style="text;strokeColor=none;fillColor=none;align=left;verticalAlign=top;spacingLeft=4;spacingRight=4;overflow=hidden;rotatable=0;points=[[0,0.5],[1,0.5]];portConstraint=eastwest;" vertex="1" parent="FTZSIhkdupkuuKpnyyNk-0">
          <mxGeometry y="233.45454545454544" width="420" height="25" as="geometry" />
        </mxCell>
        <mxCell id="FTZSIhkdupkuuKpnyyNk-11" value="+calculateCartTotal(Cart cart)" style="text;strokeColor=none;fillColor=none;align=left;verticalAlign=top;spacingLeft=4;spacingRight=4;overflow=hidden;rotatable=0;points=[[0,0.5],[1,0.5]];portConstraint=eastwest;" vertex="1" parent="FTZSIhkdupkuuKpnyyNk-0">
          <mxGeometry y="258.45454545454544" width="420" height="25" as="geometry" />
        </mxCell>
        <mxCell id="FTZSIhkdupkuuKpnyyNk-12" value="CartItem" style="swimlane;fontStyle=1;align=center;verticalAlign=top;childLayout=stackLayout;horizontal=1;startSize=25.818181818181817;horizontalStack=0;resizeParent=1;resizeParentMax=0;resizeLast=0;collapsible=0;marginBottom=0;" vertex="1" parent="WIyWlLk6GJQsqaUBKTNV-1">
          <mxGeometry x="52" y="584" width="113" height="142.8181818181818" as="geometry" />
        </mxCell>
        <mxCell id="FTZSIhkdupkuuKpnyyNk-13" value="+Long id" style="text;strokeColor=none;fillColor=none;align=left;verticalAlign=top;spacingLeft=4;spacingRight=4;overflow=hidden;rotatable=0;points=[[0,0.5],[1,0.5]];portConstraint=eastwest;" vertex="1" parent="FTZSIhkdupkuuKpnyyNk-12">
          <mxGeometry y="25.818181818181817" width="113" height="26" as="geometry" />
        </mxCell>
        <mxCell id="FTZSIhkdupkuuKpnyyNk-14" value="+Product product" style="text;strokeColor=none;fillColor=none;align=left;verticalAlign=top;spacingLeft=4;spacingRight=4;overflow=hidden;rotatable=0;points=[[0,0.5],[1,0.5]];portConstraint=eastwest;" vertex="1" parent="FTZSIhkdupkuuKpnyyNk-12">
          <mxGeometry y="51.81818181818181" width="113" height="26" as="geometry" />
        </mxCell>
        <mxCell id="FTZSIhkdupkuuKpnyyNk-15" value="+int quantity" style="text;strokeColor=none;fillColor=none;align=left;verticalAlign=top;spacingLeft=4;spacingRight=4;overflow=hidden;rotatable=0;points=[[0,0.5],[1,0.5]];portConstraint=eastwest;" vertex="1" parent="FTZSIhkdupkuuKpnyyNk-12">
          <mxGeometry y="77.81818181818181" width="113" height="26" as="geometry" />
        </mxCell>
        <mxCell id="FTZSIhkdupkuuKpnyyNk-16" value="+Cart cart" style="text;strokeColor=none;fillColor=none;align=left;verticalAlign=top;spacingLeft=4;spacingRight=4;overflow=hidden;rotatable=0;points=[[0,0.5],[1,0.5]];portConstraint=eastwest;" vertex="1" parent="FTZSIhkdupkuuKpnyyNk-12">
          <mxGeometry y="103.81818181818181" width="113" height="26" as="geometry" />
        </mxCell>
        <mxCell id="FTZSIhkdupkuuKpnyyNk-17" style="line;strokeWidth=1;fillColor=none;align=left;verticalAlign=middle;spacingTop=-1;spacingLeft=3;spacingRight=3;rotatable=0;labelPosition=right;points=[];portConstraint=eastwest;strokeColor=inherit;" vertex="1" parent="FTZSIhkdupkuuKpnyyNk-12">
          <mxGeometry y="129.8181818181818" width="113" height="13" as="geometry" />
        </mxCell>
        <mxCell id="FTZSIhkdupkuuKpnyyNk-18" value="Order" style="swimlane;fontStyle=1;align=center;verticalAlign=top;childLayout=stackLayout;horizontal=1;startSize=24.42105263157895;horizontalStack=0;resizeParent=1;resizeParentMax=0;resizeLast=0;collapsible=0;marginBottom=0;" vertex="1" parent="WIyWlLk6GJQsqaUBKTNV-1">
          <mxGeometry x="568" y="20" width="307" height="464.42105263157896" as="geometry" />
        </mxCell>
        <mxCell id="FTZSIhkdupkuuKpnyyNk-19" value="+Long id" style="text;strokeColor=none;fillColor=none;align=left;verticalAlign=top;spacingLeft=4;spacingRight=4;overflow=hidden;rotatable=0;points=[[0,0.5],[1,0.5]];portConstraint=eastwest;" vertex="1" parent="FTZSIhkdupkuuKpnyyNk-18">
          <mxGeometry y="24.42105263157895" width="307" height="24" as="geometry" />
        </mxCell>
        <mxCell id="FTZSIhkdupkuuKpnyyNk-20" value="+List orderItems" style="text;strokeColor=none;fillColor=none;align=left;verticalAlign=top;spacingLeft=4;spacingRight=4;overflow=hidden;rotatable=0;points=[[0,0.5],[1,0.5]];portConstraint=eastwest;" vertex="1" parent="FTZSIhkdupkuuKpnyyNk-18">
          <mxGeometry y="48.421052631578945" width="307" height="24" as="geometry" />
        </mxCell>
        <mxCell id="FTZSIhkdupkuuKpnyyNk-21" value="+User user" style="text;strokeColor=none;fillColor=none;align=left;verticalAlign=top;spacingLeft=4;spacingRight=4;overflow=hidden;rotatable=0;points=[[0,0.5],[1,0.5]];portConstraint=eastwest;" vertex="1" parent="FTZSIhkdupkuuKpnyyNk-18">
          <mxGeometry y="72.42105263157895" width="307" height="24" as="geometry" />
        </mxCell>
        <mxCell id="FTZSIhkdupkuuKpnyyNk-22" value="+double totalAmount" style="text;strokeColor=none;fillColor=none;align=left;verticalAlign=top;spacingLeft=4;spacingRight=4;overflow=hidden;rotatable=0;points=[[0,0.5],[1,0.5]];portConstraint=eastwest;" vertex="1" parent="FTZSIhkdupkuuKpnyyNk-18">
          <mxGeometry y="96.42105263157895" width="307" height="24" as="geometry" />
        </mxCell>
        <mxCell id="FTZSIhkdupkuuKpnyyNk-23" value="+PaymentMethod paymentMethod" style="text;strokeColor=none;fillColor=none;align=left;verticalAlign=top;spacingLeft=4;spacingRight=4;overflow=hidden;rotatable=0;points=[[0,0.5],[1,0.5]];portConstraint=eastwest;" vertex="1" parent="FTZSIhkdupkuuKpnyyNk-18">
          <mxGeometry y="120.42105263157895" width="307" height="24" as="geometry" />
        </mxCell>
        <mxCell id="FTZSIhkdupkuuKpnyyNk-24" value="+PaymentStatus paymentStatus" style="text;strokeColor=none;fillColor=none;align=left;verticalAlign=top;spacingLeft=4;spacingRight=4;overflow=hidden;rotatable=0;points=[[0,0.5],[1,0.5]];portConstraint=eastwest;" vertex="1" parent="FTZSIhkdupkuuKpnyyNk-18">
          <mxGeometry y="144.42105263157896" width="307" height="24" as="geometry" />
        </mxCell>
        <mxCell id="FTZSIhkdupkuuKpnyyNk-25" value="+OrderStatus orderStatus" style="text;strokeColor=none;fillColor=none;align=left;verticalAlign=top;spacingLeft=4;spacingRight=4;overflow=hidden;rotatable=0;points=[[0,0.5],[1,0.5]];portConstraint=eastwest;" vertex="1" parent="FTZSIhkdupkuuKpnyyNk-18">
          <mxGeometry y="168.42105263157896" width="307" height="24" as="geometry" />
        </mxCell>
        <mxCell id="FTZSIhkdupkuuKpnyyNk-26" value="+String trackingNumber" style="text;strokeColor=none;fillColor=none;align=left;verticalAlign=top;spacingLeft=4;spacingRight=4;overflow=hidden;rotatable=0;points=[[0,0.5],[1,0.5]];portConstraint=eastwest;" vertex="1" parent="FTZSIhkdupkuuKpnyyNk-18">
          <mxGeometry y="192.42105263157896" width="307" height="24" as="geometry" />
        </mxCell>
        <mxCell id="FTZSIhkdupkuuKpnyyNk-27" value="+String invoiceNumber" style="text;strokeColor=none;fillColor=none;align=left;verticalAlign=top;spacingLeft=4;spacingRight=4;overflow=hidden;rotatable=0;points=[[0,0.5],[1,0.5]];portConstraint=eastwest;" vertex="1" parent="FTZSIhkdupkuuKpnyyNk-18">
          <mxGeometry y="216.42105263157896" width="307" height="24" as="geometry" />
        </mxCell>
        <mxCell id="FTZSIhkdupkuuKpnyyNk-28" value="+String paymentOrderId" style="text;strokeColor=none;fillColor=none;align=left;verticalAlign=top;spacingLeft=4;spacingRight=4;overflow=hidden;rotatable=0;points=[[0,0.5],[1,0.5]];portConstraint=eastwest;" vertex="1" parent="FTZSIhkdupkuuKpnyyNk-18">
          <mxGeometry y="240.42105263157896" width="307" height="24" as="geometry" />
        </mxCell>
        <mxCell id="FTZSIhkdupkuuKpnyyNk-29" value="+String paymentLink" style="text;strokeColor=none;fillColor=none;align=left;verticalAlign=top;spacingLeft=4;spacingRight=4;overflow=hidden;rotatable=0;points=[[0,0.5],[1,0.5]];portConstraint=eastwest;" vertex="1" parent="FTZSIhkdupkuuKpnyyNk-18">
          <mxGeometry y="264.42105263157896" width="307" height="24" as="geometry" />
        </mxCell>
        <mxCell id="FTZSIhkdupkuuKpnyyNk-30" value="+String paymentId" style="text;strokeColor=none;fillColor=none;align=left;verticalAlign=top;spacingLeft=4;spacingRight=4;overflow=hidden;rotatable=0;points=[[0,0.5],[1,0.5]];portConstraint=eastwest;" vertex="1" parent="FTZSIhkdupkuuKpnyyNk-18">
          <mxGeometry y="288.42105263157896" width="307" height="24" as="geometry" />
        </mxCell>
        <mxCell id="FTZSIhkdupkuuKpnyyNk-31" value="+String refundId" style="text;strokeColor=none;fillColor=none;align=left;verticalAlign=top;spacingLeft=4;spacingRight=4;overflow=hidden;rotatable=0;points=[[0,0.5],[1,0.5]];portConstraint=eastwest;" vertex="1" parent="FTZSIhkdupkuuKpnyyNk-18">
          <mxGeometry y="312.42105263157896" width="307" height="24" as="geometry" />
        </mxCell>
        <mxCell id="FTZSIhkdupkuuKpnyyNk-32" style="line;strokeWidth=1;fillColor=none;align=left;verticalAlign=middle;spacingTop=-1;spacingLeft=3;spacingRight=3;rotatable=0;labelPosition=right;points=[];portConstraint=eastwest;strokeColor=inherit;" vertex="1" parent="FTZSIhkdupkuuKpnyyNk-18">
          <mxGeometry y="336.42105263157896" width="307" height="8" as="geometry" />
        </mxCell>
        <mxCell id="FTZSIhkdupkuuKpnyyNk-33" value="+placeOrder(Long userId)" style="text;strokeColor=none;fillColor=none;align=left;verticalAlign=top;spacingLeft=4;spacingRight=4;overflow=hidden;rotatable=0;points=[[0,0.5],[1,0.5]];portConstraint=eastwest;" vertex="1" parent="FTZSIhkdupkuuKpnyyNk-18">
          <mxGeometry y="344.42105263157896" width="307" height="24" as="geometry" />
        </mxCell>
        <mxCell id="FTZSIhkdupkuuKpnyyNk-34" value="+confirmPayment(Long userId, String paymentOrderId)" style="text;strokeColor=none;fillColor=none;align=left;verticalAlign=top;spacingLeft=4;spacingRight=4;overflow=hidden;rotatable=0;points=[[0,0.5],[1,0.5]];portConstraint=eastwest;" vertex="1" parent="FTZSIhkdupkuuKpnyyNk-18">
          <mxGeometry y="368.42105263157896" width="307" height="24" as="geometry" />
        </mxCell>
        <mxCell id="FTZSIhkdupkuuKpnyyNk-35" value="+getOrder(Long orderId)" style="text;strokeColor=none;fillColor=none;align=left;verticalAlign=top;spacingLeft=4;spacingRight=4;overflow=hidden;rotatable=0;points=[[0,0.5],[1,0.5]];portConstraint=eastwest;" vertex="1" parent="FTZSIhkdupkuuKpnyyNk-18">
          <mxGeometry y="392.42105263157896" width="307" height="24" as="geometry" />
        </mxCell>
        <mxCell id="FTZSIhkdupkuuKpnyyNk-36" value="+getAllOrders(Long userId, OrderStatus status)" style="text;strokeColor=none;fillColor=none;align=left;verticalAlign=top;spacingLeft=4;spacingRight=4;overflow=hidden;rotatable=0;points=[[0,0.5],[1,0.5]];portConstraint=eastwest;" vertex="1" parent="FTZSIhkdupkuuKpnyyNk-18">
          <mxGeometry y="416.42105263157896" width="307" height="24" as="geometry" />
        </mxCell>
        <mxCell id="FTZSIhkdupkuuKpnyyNk-37" value="+cancelOrder(Long orderId)" style="text;strokeColor=none;fillColor=none;align=left;verticalAlign=top;spacingLeft=4;spacingRight=4;overflow=hidden;rotatable=0;points=[[0,0.5],[1,0.5]];portConstraint=eastwest;" vertex="1" parent="FTZSIhkdupkuuKpnyyNk-18">
          <mxGeometry y="440.42105263157896" width="307" height="24" as="geometry" />
        </mxCell>
        <mxCell id="FTZSIhkdupkuuKpnyyNk-38" value="OrderItem" style="swimlane;fontStyle=1;align=center;verticalAlign=top;childLayout=stackLayout;horizontal=1;startSize=25.384615384615383;horizontalStack=0;resizeParent=1;resizeParentMax=0;resizeLast=0;collapsible=0;marginBottom=0;" vertex="1" parent="WIyWlLk6GJQsqaUBKTNV-1">
          <mxGeometry x="682" y="576.86" width="148" height="163.3846153846154" as="geometry" />
        </mxCell>
        <mxCell id="FTZSIhkdupkuuKpnyyNk-39" value="+Long id" style="text;strokeColor=none;fillColor=none;align=left;verticalAlign=top;spacingLeft=4;spacingRight=4;overflow=hidden;rotatable=0;points=[[0,0.5],[1,0.5]];portConstraint=eastwest;" vertex="1" parent="FTZSIhkdupkuuKpnyyNk-38">
          <mxGeometry y="25.384615384615383" width="148" height="25" as="geometry" />
        </mxCell>
        <mxCell id="FTZSIhkdupkuuKpnyyNk-40" value="+Product product" style="text;strokeColor=none;fillColor=none;align=left;verticalAlign=top;spacingLeft=4;spacingRight=4;overflow=hidden;rotatable=0;points=[[0,0.5],[1,0.5]];portConstraint=eastwest;" vertex="1" parent="FTZSIhkdupkuuKpnyyNk-38">
          <mxGeometry y="50.38461538461539" width="148" height="25" as="geometry" />
        </mxCell>
        <mxCell id="FTZSIhkdupkuuKpnyyNk-41" value="+Order order" style="text;strokeColor=none;fillColor=none;align=left;verticalAlign=top;spacingLeft=4;spacingRight=4;overflow=hidden;rotatable=0;points=[[0,0.5],[1,0.5]];portConstraint=eastwest;" vertex="1" parent="FTZSIhkdupkuuKpnyyNk-38">
          <mxGeometry y="75.38461538461539" width="148" height="25" as="geometry" />
        </mxCell>
        <mxCell id="FTZSIhkdupkuuKpnyyNk-42" value="+int quantity" style="text;strokeColor=none;fillColor=none;align=left;verticalAlign=top;spacingLeft=4;spacingRight=4;overflow=hidden;rotatable=0;points=[[0,0.5],[1,0.5]];portConstraint=eastwest;" vertex="1" parent="FTZSIhkdupkuuKpnyyNk-38">
          <mxGeometry y="100.38461538461539" width="148" height="25" as="geometry" />
        </mxCell>
        <mxCell id="FTZSIhkdupkuuKpnyyNk-43" value="+double priceAtPurchase" style="text;strokeColor=none;fillColor=none;align=left;verticalAlign=top;spacingLeft=4;spacingRight=4;overflow=hidden;rotatable=0;points=[[0,0.5],[1,0.5]];portConstraint=eastwest;" vertex="1" parent="FTZSIhkdupkuuKpnyyNk-38">
          <mxGeometry y="125.38461538461539" width="148" height="25" as="geometry" />
        </mxCell>
        <mxCell id="FTZSIhkdupkuuKpnyyNk-44" style="line;strokeWidth=1;fillColor=none;align=left;verticalAlign=middle;spacingTop=-1;spacingLeft=3;spacingRight=3;rotatable=0;labelPosition=right;points=[];portConstraint=eastwest;strokeColor=inherit;" vertex="1" parent="FTZSIhkdupkuuKpnyyNk-38">
          <mxGeometry y="150.3846153846154" width="148" height="13" as="geometry" />
        </mxCell>
        <mxCell id="FTZSIhkdupkuuKpnyyNk-45" value="&lt;&lt;enumeration&gt;&gt;&#xa;OrderStatus" style="swimlane;fontStyle=1;align=center;verticalAlign=top;childLayout=stackLayout;horizontal=1;startSize=41.25;horizontalStack=0;resizeParent=1;resizeParentMax=0;resizeLast=0;collapsible=0;marginBottom=0;" vertex="1" parent="WIyWlLk6GJQsqaUBKTNV-1">
          <mxGeometry x="525" y="574.93" width="115" height="167.25" as="geometry" />
        </mxCell>
        <mxCell id="FTZSIhkdupkuuKpnyyNk-46" value="PENDING" style="text;strokeColor=none;fillColor=none;align=left;verticalAlign=top;spacingLeft=4;spacingRight=4;overflow=hidden;rotatable=0;points=[[0,0.5],[1,0.5]];portConstraint=eastwest;" vertex="1" parent="FTZSIhkdupkuuKpnyyNk-45">
          <mxGeometry y="41.25" width="115" height="28" as="geometry" />
        </mxCell>
        <mxCell id="FTZSIhkdupkuuKpnyyNk-47" value="PLACED" style="text;strokeColor=none;fillColor=none;align=left;verticalAlign=top;spacingLeft=4;spacingRight=4;overflow=hidden;rotatable=0;points=[[0,0.5],[1,0.5]];portConstraint=eastwest;" vertex="1" parent="FTZSIhkdupkuuKpnyyNk-45">
          <mxGeometry y="69.25" width="115" height="28" as="geometry" />
        </mxCell>
        <mxCell id="FTZSIhkdupkuuKpnyyNk-48" value="CANCELLED" style="text;strokeColor=none;fillColor=none;align=left;verticalAlign=top;spacingLeft=4;spacingRight=4;overflow=hidden;rotatable=0;points=[[0,0.5],[1,0.5]];portConstraint=eastwest;" vertex="1" parent="FTZSIhkdupkuuKpnyyNk-45">
          <mxGeometry y="97.25" width="115" height="28" as="geometry" />
        </mxCell>
        <mxCell id="FTZSIhkdupkuuKpnyyNk-49" value="FAILED" style="text;strokeColor=none;fillColor=none;align=left;verticalAlign=top;spacingLeft=4;spacingRight=4;overflow=hidden;rotatable=0;points=[[0,0.5],[1,0.5]];portConstraint=eastwest;" vertex="1" parent="FTZSIhkdupkuuKpnyyNk-45">
          <mxGeometry y="125.25" width="115" height="28" as="geometry" />
        </mxCell>
        <mxCell id="FTZSIhkdupkuuKpnyyNk-50" style="line;strokeWidth=1;fillColor=none;align=left;verticalAlign=middle;spacingTop=-1;spacingLeft=3;spacingRight=3;rotatable=0;labelPosition=right;points=[];portConstraint=eastwest;strokeColor=inherit;" vertex="1" parent="FTZSIhkdupkuuKpnyyNk-45">
          <mxGeometry y="153.25" width="115" height="14" as="geometry" />
        </mxCell>
        <mxCell id="FTZSIhkdupkuuKpnyyNk-51" value="&lt;&lt;enumeration&gt;&gt;&#xa;PaymentMethod" style="swimlane;fontStyle=1;align=center;verticalAlign=top;childLayout=stackLayout;horizontal=1;startSize=44.625;horizontalStack=0;resizeParent=1;resizeParentMax=0;resizeLast=0;collapsible=0;marginBottom=0;" vertex="1" parent="WIyWlLk6GJQsqaUBKTNV-1">
          <mxGeometry x="875" y="596.81" width="115" height="119.625" as="geometry" />
        </mxCell>
        <mxCell id="FTZSIhkdupkuuKpnyyNk-52" value="ONLINE" style="text;strokeColor=none;fillColor=none;align=left;verticalAlign=top;spacingLeft=4;spacingRight=4;overflow=hidden;rotatable=0;points=[[0,0.5],[1,0.5]];portConstraint=eastwest;" vertex="1" parent="FTZSIhkdupkuuKpnyyNk-51">
          <mxGeometry y="44.625" width="115" height="30" as="geometry" />
        </mxCell>
        <mxCell id="FTZSIhkdupkuuKpnyyNk-53" value="OFFLINE" style="text;strokeColor=none;fillColor=none;align=left;verticalAlign=top;spacingLeft=4;spacingRight=4;overflow=hidden;rotatable=0;points=[[0,0.5],[1,0.5]];portConstraint=eastwest;" vertex="1" parent="FTZSIhkdupkuuKpnyyNk-51">
          <mxGeometry y="74.625" width="115" height="30" as="geometry" />
        </mxCell>
        <mxCell id="FTZSIhkdupkuuKpnyyNk-54" style="line;strokeWidth=1;fillColor=none;align=left;verticalAlign=middle;spacingTop=-1;spacingLeft=3;spacingRight=3;rotatable=0;labelPosition=right;points=[];portConstraint=eastwest;strokeColor=inherit;" vertex="1" parent="FTZSIhkdupkuuKpnyyNk-51">
          <mxGeometry y="104.625" width="115" height="15" as="geometry" />
        </mxCell>
        <mxCell id="FTZSIhkdupkuuKpnyyNk-55" value="&lt;&lt;enumeration&gt;&gt;&#xa;PaymentStatus" style="swimlane;fontStyle=1;align=center;verticalAlign=top;childLayout=stackLayout;horizontal=1;startSize=40.285714285714285;horizontalStack=0;resizeParent=1;resizeParentMax=0;resizeLast=0;collapsible=0;marginBottom=0;" vertex="1" parent="WIyWlLk6GJQsqaUBKTNV-1">
          <mxGeometry x="770" y="770.0000000000001" width="125" height="188.28571428571428" as="geometry" />
        </mxCell>
        <mxCell id="FTZSIhkdupkuuKpnyyNk-56" value="PENDING" style="text;strokeColor=none;fillColor=none;align=left;verticalAlign=top;spacingLeft=4;spacingRight=4;overflow=hidden;rotatable=0;points=[[0,0.5],[1,0.5]];portConstraint=eastwest;" vertex="1" parent="FTZSIhkdupkuuKpnyyNk-55">
          <mxGeometry y="40.285714285714285" width="125" height="27" as="geometry" />
        </mxCell>
        <mxCell id="FTZSIhkdupkuuKpnyyNk-57" value="PAID" style="text;strokeColor=none;fillColor=none;align=left;verticalAlign=top;spacingLeft=4;spacingRight=4;overflow=hidden;rotatable=0;points=[[0,0.5],[1,0.5]];portConstraint=eastwest;" vertex="1" parent="FTZSIhkdupkuuKpnyyNk-55">
          <mxGeometry y="67.28571428571428" width="125" height="27" as="geometry" />
        </mxCell>
        <mxCell id="FTZSIhkdupkuuKpnyyNk-58" value="FAILED" style="text;strokeColor=none;fillColor=none;align=left;verticalAlign=top;spacingLeft=4;spacingRight=4;overflow=hidden;rotatable=0;points=[[0,0.5],[1,0.5]];portConstraint=eastwest;" vertex="1" parent="FTZSIhkdupkuuKpnyyNk-55">
          <mxGeometry y="94.28571428571428" width="125" height="27" as="geometry" />
        </mxCell>
        <mxCell id="FTZSIhkdupkuuKpnyyNk-59" value="REFUNDED" style="text;strokeColor=none;fillColor=none;align=left;verticalAlign=top;spacingLeft=4;spacingRight=4;overflow=hidden;rotatable=0;points=[[0,0.5],[1,0.5]];portConstraint=eastwest;" vertex="1" parent="FTZSIhkdupkuuKpnyyNk-55">
          <mxGeometry y="121.28571428571428" width="125" height="27" as="geometry" />
        </mxCell>
        <mxCell id="FTZSIhkdupkuuKpnyyNk-60" value="CANCELLED" style="text;strokeColor=none;fillColor=none;align=left;verticalAlign=top;spacingLeft=4;spacingRight=4;overflow=hidden;rotatable=0;points=[[0,0.5],[1,0.5]];portConstraint=eastwest;" vertex="1" parent="FTZSIhkdupkuuKpnyyNk-55">
          <mxGeometry y="148.28571428571428" width="125" height="27" as="geometry" />
        </mxCell>
        <mxCell id="FTZSIhkdupkuuKpnyyNk-61" style="line;strokeWidth=1;fillColor=none;align=left;verticalAlign=middle;spacingTop=-1;spacingLeft=3;spacingRight=3;rotatable=0;labelPosition=right;points=[];portConstraint=eastwest;strokeColor=inherit;" vertex="1" parent="FTZSIhkdupkuuKpnyyNk-55">
          <mxGeometry y="175.28571428571428" width="125" height="13" as="geometry" />
        </mxCell>
        <mxCell id="FTZSIhkdupkuuKpnyyNk-62" value="Category" style="swimlane;fontStyle=1;align=center;verticalAlign=top;childLayout=stackLayout;horizontal=1;startSize=27.428571428571427;horizontalStack=0;resizeParent=1;resizeParentMax=0;resizeLast=0;collapsible=0;marginBottom=0;" vertex="1" parent="WIyWlLk6GJQsqaUBKTNV-1">
          <mxGeometry x="385" y="640" width="95" height="95.42857142857143" as="geometry" />
        </mxCell>
        <mxCell id="FTZSIhkdupkuuKpnyyNk-63" value="+Long id" style="text;strokeColor=none;fillColor=none;align=left;verticalAlign=top;spacingLeft=4;spacingRight=4;overflow=hidden;rotatable=0;points=[[0,0.5],[1,0.5]];portConstraint=eastwest;" vertex="1" parent="FTZSIhkdupkuuKpnyyNk-62">
          <mxGeometry y="27.428571428571427" width="95" height="27" as="geometry" />
        </mxCell>
        <mxCell id="FTZSIhkdupkuuKpnyyNk-64" value="+String name" style="text;strokeColor=none;fillColor=none;align=left;verticalAlign=top;spacingLeft=4;spacingRight=4;overflow=hidden;rotatable=0;points=[[0,0.5],[1,0.5]];portConstraint=eastwest;" vertex="1" parent="FTZSIhkdupkuuKpnyyNk-62">
          <mxGeometry y="54.42857142857143" width="95" height="27" as="geometry" />
        </mxCell>
        <mxCell id="FTZSIhkdupkuuKpnyyNk-65" style="line;strokeWidth=1;fillColor=none;align=left;verticalAlign=middle;spacingTop=-1;spacingLeft=3;spacingRight=3;rotatable=0;labelPosition=right;points=[];portConstraint=eastwest;strokeColor=inherit;" vertex="1" parent="FTZSIhkdupkuuKpnyyNk-62">
          <mxGeometry y="81.42857142857143" width="95" height="14" as="geometry" />
        </mxCell>
        <mxCell id="FTZSIhkdupkuuKpnyyNk-66" value="Product" style="swimlane;fontStyle=1;align=center;verticalAlign=top;childLayout=stackLayout;horizontal=1;startSize=25.076923076923077;horizontalStack=0;resizeParent=1;resizeParentMax=0;resizeLast=0;collapsible=0;marginBottom=0;" vertex="1" parent="WIyWlLk6GJQsqaUBKTNV-1">
          <mxGeometry x="66" y="800" width="599" height="333.0769230769231" as="geometry" />
        </mxCell>
        <mxCell id="FTZSIhkdupkuuKpnyyNk-67" value="+Long id" style="text;strokeColor=none;fillColor=none;align=left;verticalAlign=top;spacingLeft=4;spacingRight=4;overflow=hidden;rotatable=0;points=[[0,0.5],[1,0.5]];portConstraint=eastwest;" vertex="1" parent="FTZSIhkdupkuuKpnyyNk-66">
          <mxGeometry y="25.076923076923077" width="599" height="25" as="geometry" />
        </mxCell>
        <mxCell id="FTZSIhkdupkuuKpnyyNk-68" value="+String title" style="text;strokeColor=none;fillColor=none;align=left;verticalAlign=top;spacingLeft=4;spacingRight=4;overflow=hidden;rotatable=0;points=[[0,0.5],[1,0.5]];portConstraint=eastwest;" vertex="1" parent="FTZSIhkdupkuuKpnyyNk-66">
          <mxGeometry y="50.07692307692308" width="599" height="25" as="geometry" />
        </mxCell>
        <mxCell id="FTZSIhkdupkuuKpnyyNk-69" value="+String description" style="text;strokeColor=none;fillColor=none;align=left;verticalAlign=top;spacingLeft=4;spacingRight=4;overflow=hidden;rotatable=0;points=[[0,0.5],[1,0.5]];portConstraint=eastwest;" vertex="1" parent="FTZSIhkdupkuuKpnyyNk-66">
          <mxGeometry y="75.07692307692308" width="599" height="25" as="geometry" />
        </mxCell>
        <mxCell id="FTZSIhkdupkuuKpnyyNk-70" value="+double price" style="text;strokeColor=none;fillColor=none;align=left;verticalAlign=top;spacingLeft=4;spacingRight=4;overflow=hidden;rotatable=0;points=[[0,0.5],[1,0.5]];portConstraint=eastwest;" vertex="1" parent="FTZSIhkdupkuuKpnyyNk-66">
          <mxGeometry y="100.07692307692308" width="599" height="25" as="geometry" />
        </mxCell>
        <mxCell id="FTZSIhkdupkuuKpnyyNk-71" value="+int stockQuantity" style="text;strokeColor=none;fillColor=none;align=left;verticalAlign=top;spacingLeft=4;spacingRight=4;overflow=hidden;rotatable=0;points=[[0,0.5],[1,0.5]];portConstraint=eastwest;" vertex="1" parent="FTZSIhkdupkuuKpnyyNk-66">
          <mxGeometry y="125.07692307692308" width="599" height="25" as="geometry" />
        </mxCell>
        <mxCell id="FTZSIhkdupkuuKpnyyNk-72" value="+double rating" style="text;strokeColor=none;fillColor=none;align=left;verticalAlign=top;spacingLeft=4;spacingRight=4;overflow=hidden;rotatable=0;points=[[0,0.5],[1,0.5]];portConstraint=eastwest;" vertex="1" parent="FTZSIhkdupkuuKpnyyNk-66">
          <mxGeometry y="150.0769230769231" width="599" height="25" as="geometry" />
        </mxCell>
        <mxCell id="FTZSIhkdupkuuKpnyyNk-73" value="+Category category" style="text;strokeColor=none;fillColor=none;align=left;verticalAlign=top;spacingLeft=4;spacingRight=4;overflow=hidden;rotatable=0;points=[[0,0.5],[1,0.5]];portConstraint=eastwest;" vertex="1" parent="FTZSIhkdupkuuKpnyyNk-66">
          <mxGeometry y="175.0769230769231" width="599" height="25" as="geometry" />
        </mxCell>
        <mxCell id="FTZSIhkdupkuuKpnyyNk-74" style="line;strokeWidth=1;fillColor=none;align=left;verticalAlign=middle;spacingTop=-1;spacingLeft=3;spacingRight=3;rotatable=0;labelPosition=right;points=[];portConstraint=eastwest;strokeColor=inherit;" vertex="1" parent="FTZSIhkdupkuuKpnyyNk-66">
          <mxGeometry y="200.0769230769231" width="599" height="8" as="geometry" />
        </mxCell>
        <mxCell id="FTZSIhkdupkuuKpnyyNk-75" value="+createProduct(String title, String description, double price, int stockQuantity, double rating, String category)" style="text;strokeColor=none;fillColor=none;align=left;verticalAlign=top;spacingLeft=4;spacingRight=4;overflow=hidden;rotatable=0;points=[[0,0.5],[1,0.5]];portConstraint=eastwest;" vertex="1" parent="FTZSIhkdupkuuKpnyyNk-66">
          <mxGeometry y="208.0769230769231" width="599" height="25" as="geometry" />
        </mxCell>
        <mxCell id="FTZSIhkdupkuuKpnyyNk-76" value="+getAllProducts()" style="text;strokeColor=none;fillColor=none;align=left;verticalAlign=top;spacingLeft=4;spacingRight=4;overflow=hidden;rotatable=0;points=[[0,0.5],[1,0.5]];portConstraint=eastwest;" vertex="1" parent="FTZSIhkdupkuuKpnyyNk-66">
          <mxGeometry y="233.0769230769231" width="599" height="25" as="geometry" />
        </mxCell>
        <mxCell id="FTZSIhkdupkuuKpnyyNk-77" value="+getProductById(Long id)" style="text;strokeColor=none;fillColor=none;align=left;verticalAlign=top;spacingLeft=4;spacingRight=4;overflow=hidden;rotatable=0;points=[[0,0.5],[1,0.5]];portConstraint=eastwest;" vertex="1" parent="FTZSIhkdupkuuKpnyyNk-66">
          <mxGeometry y="258.0769230769231" width="599" height="25" as="geometry" />
        </mxCell>
        <mxCell id="FTZSIhkdupkuuKpnyyNk-78" value="+updateProduct(Long id, Map updates)" style="text;strokeColor=none;fillColor=none;align=left;verticalAlign=top;spacingLeft=4;spacingRight=4;overflow=hidden;rotatable=0;points=[[0,0.5],[1,0.5]];portConstraint=eastwest;" vertex="1" parent="FTZSIhkdupkuuKpnyyNk-66">
          <mxGeometry y="283.0769230769231" width="599" height="25" as="geometry" />
        </mxCell>
        <mxCell id="FTZSIhkdupkuuKpnyyNk-79" value="+deleteProduct(Long id)" style="text;strokeColor=none;fillColor=none;align=left;verticalAlign=top;spacingLeft=4;spacingRight=4;overflow=hidden;rotatable=0;points=[[0,0.5],[1,0.5]];portConstraint=eastwest;" vertex="1" parent="FTZSIhkdupkuuKpnyyNk-66">
          <mxGeometry y="308.0769230769231" width="599" height="25" as="geometry" />
        </mxCell>
        <mxCell id="FTZSIhkdupkuuKpnyyNk-80" value="User" style="swimlane;fontStyle=1;align=center;verticalAlign=top;childLayout=stackLayout;horizontal=1;startSize=25.066666666666666;horizontalStack=0;resizeParent=1;resizeParentMax=0;resizeLast=0;collapsible=0;marginBottom=0;" vertex="1" parent="WIyWlLk6GJQsqaUBKTNV-1">
          <mxGeometry x="219" y="562.5899999999999" width="100" height="188.06666666666666" as="geometry" />
        </mxCell>
        <mxCell id="FTZSIhkdupkuuKpnyyNk-81" value="+Long id" style="text;strokeColor=none;fillColor=none;align=left;verticalAlign=top;spacingLeft=4;spacingRight=4;overflow=hidden;rotatable=0;points=[[0,0.5],[1,0.5]];portConstraint=eastwest;" vertex="1" parent="FTZSIhkdupkuuKpnyyNk-80">
          <mxGeometry y="25.066666666666666" width="100" height="25" as="geometry" />
        </mxCell>
        <mxCell id="FTZSIhkdupkuuKpnyyNk-82" value="+String name" style="text;strokeColor=none;fillColor=none;align=left;verticalAlign=top;spacingLeft=4;spacingRight=4;overflow=hidden;rotatable=0;points=[[0,0.5],[1,0.5]];portConstraint=eastwest;" vertex="1" parent="FTZSIhkdupkuuKpnyyNk-80">
          <mxGeometry y="50.06666666666666" width="100" height="25" as="geometry" />
        </mxCell>
        <mxCell id="FTZSIhkdupkuuKpnyyNk-83" value="+String email" style="text;strokeColor=none;fillColor=none;align=left;verticalAlign=top;spacingLeft=4;spacingRight=4;overflow=hidden;rotatable=0;points=[[0,0.5],[1,0.5]];portConstraint=eastwest;" vertex="1" parent="FTZSIhkdupkuuKpnyyNk-80">
          <mxGeometry y="75.06666666666666" width="100" height="25" as="geometry" />
        </mxCell>
        <mxCell id="FTZSIhkdupkuuKpnyyNk-84" value="+String address" style="text;strokeColor=none;fillColor=none;align=left;verticalAlign=top;spacingLeft=4;spacingRight=4;overflow=hidden;rotatable=0;points=[[0,0.5],[1,0.5]];portConstraint=eastwest;" vertex="1" parent="FTZSIhkdupkuuKpnyyNk-80">
          <mxGeometry y="100.06666666666666" width="100" height="25" as="geometry" />
        </mxCell>
        <mxCell id="FTZSIhkdupkuuKpnyyNk-85" value="+List roles" style="text;strokeColor=none;fillColor=none;align=left;verticalAlign=top;spacingLeft=4;spacingRight=4;overflow=hidden;rotatable=0;points=[[0,0.5],[1,0.5]];portConstraint=eastwest;" vertex="1" parent="FTZSIhkdupkuuKpnyyNk-80">
          <mxGeometry y="125.06666666666666" width="100" height="25" as="geometry" />
        </mxCell>
        <mxCell id="FTZSIhkdupkuuKpnyyNk-86" value="+Cart cart" style="text;strokeColor=none;fillColor=none;align=left;verticalAlign=top;spacingLeft=4;spacingRight=4;overflow=hidden;rotatable=0;points=[[0,0.5],[1,0.5]];portConstraint=eastwest;" vertex="1" parent="FTZSIhkdupkuuKpnyyNk-80">
          <mxGeometry y="150.06666666666666" width="100" height="25" as="geometry" />
        </mxCell>
        <mxCell id="FTZSIhkdupkuuKpnyyNk-87" style="line;strokeWidth=1;fillColor=none;align=left;verticalAlign=middle;spacingTop=-1;spacingLeft=3;spacingRight=3;rotatable=0;labelPosition=right;points=[];portConstraint=eastwest;strokeColor=inherit;" vertex="1" parent="FTZSIhkdupkuuKpnyyNk-80">
          <mxGeometry y="175.06666666666666" width="100" height="13" as="geometry" />
        </mxCell>
        <mxCell id="FTZSIhkdupkuuKpnyyNk-88" value="has" style="curved=1;startArrow=none;endArrow=none;exitX=0.3377812612123066;exitY=1;entryX=0.15938210516492454;entryY=0;rounded=0;" edge="1" parent="WIyWlLk6GJQsqaUBKTNV-1" source="FTZSIhkdupkuuKpnyyNk-0" target="FTZSIhkdupkuuKpnyyNk-12">
          <mxGeometry relative="1" as="geometry">
            <Array as="points">
              <mxPoint x="38" y="527" />
            </Array>
          </mxGeometry>
        </mxCell>
        <mxCell id="FTZSIhkdupkuuKpnyyNk-89" value="1" style="edgeLabel;resizable=0;align=left;verticalAlign=top;" vertex="1" parent="FTZSIhkdupkuuKpnyyNk-88">
          <mxGeometry x="-1" relative="1" as="geometry" />
        </mxCell>
        <mxCell id="FTZSIhkdupkuuKpnyyNk-90" value="*" style="edgeLabel;resizable=0;align=right;verticalAlign=top;" vertex="1" parent="FTZSIhkdupkuuKpnyyNk-88">
          <mxGeometry x="1" relative="1" as="geometry" />
        </mxCell>
        <mxCell id="FTZSIhkdupkuuKpnyyNk-91" value="belongs_to" style="curved=1;startArrow=none;endArrow=none;exitX=0.657;exitY=0.982;rounded=0;exitDx=0;exitDy=0;exitPerimeter=0;" edge="1" parent="WIyWlLk6GJQsqaUBKTNV-1" source="FTZSIhkdupkuuKpnyyNk-11" target="FTZSIhkdupkuuKpnyyNk-80">
          <mxGeometry relative="1" as="geometry">
            <Array as="points">
              <mxPoint x="215" y="520" />
            </Array>
          </mxGeometry>
        </mxCell>
        <mxCell id="FTZSIhkdupkuuKpnyyNk-92" value="1" style="edgeLabel;resizable=0;align=left;verticalAlign=top;" vertex="1" parent="FTZSIhkdupkuuKpnyyNk-91">
          <mxGeometry x="-1" relative="1" as="geometry" />
        </mxCell>
        <mxCell id="FTZSIhkdupkuuKpnyyNk-93" value="1" style="edgeLabel;resizable=0;align=right;verticalAlign=top;" vertex="1" parent="FTZSIhkdupkuuKpnyyNk-91">
          <mxGeometry x="1" relative="1" as="geometry" />
        </mxCell>
        <mxCell id="FTZSIhkdupkuuKpnyyNk-94" value="contains" style="curved=1;startArrow=none;endArrow=none;exitX=0.5000562050359713;exitY=1;entryX=0.21108233678690722;entryY=0;rounded=0;" edge="1" parent="WIyWlLk6GJQsqaUBKTNV-1" source="FTZSIhkdupkuuKpnyyNk-12" target="FTZSIhkdupkuuKpnyyNk-66">
          <mxGeometry relative="1" as="geometry">
            <Array as="points">
              <mxPoint x="165" y="780" />
            </Array>
          </mxGeometry>
        </mxCell>
        <mxCell id="FTZSIhkdupkuuKpnyyNk-95" value="*" style="edgeLabel;resizable=0;align=left;verticalAlign=top;" vertex="1" parent="FTZSIhkdupkuuKpnyyNk-94">
          <mxGeometry x="-1" relative="1" as="geometry" />
        </mxCell>
        <mxCell id="FTZSIhkdupkuuKpnyyNk-96" value="1" style="edgeLabel;resizable=0;align=right;verticalAlign=top;" vertex="1" parent="FTZSIhkdupkuuKpnyyNk-94">
          <mxGeometry x="1" relative="1" as="geometry" />
        </mxCell>
        <mxCell id="FTZSIhkdupkuuKpnyyNk-97" value="belongs_to" style="curved=1;startArrow=none;endArrow=none;exitX=0.75;exitY=0;entryX=0.488;entryY=0.942;rounded=0;entryDx=0;entryDy=0;entryPerimeter=0;exitDx=0;exitDy=0;" edge="1" parent="WIyWlLk6GJQsqaUBKTNV-1" source="FTZSIhkdupkuuKpnyyNk-12" target="FTZSIhkdupkuuKpnyyNk-11">
          <mxGeometry relative="1" as="geometry">
            <Array as="points">
              <mxPoint x="145" y="520" />
            </Array>
          </mxGeometry>
        </mxCell>
        <mxCell id="FTZSIhkdupkuuKpnyyNk-98" value="*" style="edgeLabel;resizable=0;align=left;verticalAlign=top;" vertex="1" parent="FTZSIhkdupkuuKpnyyNk-97">
          <mxGeometry x="-1" relative="1" as="geometry" />
        </mxCell>
        <mxCell id="FTZSIhkdupkuuKpnyyNk-99" value="1" style="edgeLabel;resizable=0;align=right;verticalAlign=top;" vertex="1" parent="FTZSIhkdupkuuKpnyyNk-97">
          <mxGeometry x="1" relative="1" as="geometry" />
        </mxCell>
        <mxCell id="FTZSIhkdupkuuKpnyyNk-100" value="has" style="curved=1;startArrow=none;endArrow=none;exitX=0.326;exitY=1.024;rounded=0;exitDx=0;exitDy=0;exitPerimeter=0;" edge="1" parent="WIyWlLk6GJQsqaUBKTNV-1" source="FTZSIhkdupkuuKpnyyNk-37" target="FTZSIhkdupkuuKpnyyNk-38">
          <mxGeometry relative="1" as="geometry">
            <Array as="points">
              <mxPoint x="690" y="540" />
            </Array>
          </mxGeometry>
        </mxCell>
        <mxCell id="FTZSIhkdupkuuKpnyyNk-101" value="1" style="edgeLabel;resizable=0;align=left;verticalAlign=top;" vertex="1" parent="FTZSIhkdupkuuKpnyyNk-100">
          <mxGeometry x="-1" relative="1" as="geometry" />
        </mxCell>
        <mxCell id="FTZSIhkdupkuuKpnyyNk-102" value="*" style="edgeLabel;resizable=0;align=right;verticalAlign=top;" vertex="1" parent="FTZSIhkdupkuuKpnyyNk-100">
          <mxGeometry x="1" relative="1" as="geometry" />
        </mxCell>
        <mxCell id="FTZSIhkdupkuuKpnyyNk-103" value="placed_by" style="curved=1;startArrow=none;endArrow=none;exitX=0.072;exitY=0.982;entryX=1.0027406754032258;entryY=0.3591517319167574;rounded=0;exitDx=0;exitDy=0;exitPerimeter=0;" edge="1" parent="WIyWlLk6GJQsqaUBKTNV-1" source="FTZSIhkdupkuuKpnyyNk-37" target="FTZSIhkdupkuuKpnyyNk-80">
          <mxGeometry relative="1" as="geometry">
            <Array as="points">
              <mxPoint x="535" y="530" />
            </Array>
          </mxGeometry>
        </mxCell>
        <mxCell id="FTZSIhkdupkuuKpnyyNk-104" value="1" style="edgeLabel;resizable=0;align=left;verticalAlign=top;" vertex="1" parent="FTZSIhkdupkuuKpnyyNk-103">
          <mxGeometry x="-1" relative="1" as="geometry" />
        </mxCell>
        <mxCell id="FTZSIhkdupkuuKpnyyNk-105" value="1" style="edgeLabel;resizable=0;align=right;verticalAlign=top;" vertex="1" parent="FTZSIhkdupkuuKpnyyNk-103">
          <mxGeometry x="1" relative="1" as="geometry" />
        </mxCell>
        <mxCell id="FTZSIhkdupkuuKpnyyNk-106" value="contains" style="curved=1;startArrow=none;endArrow=none;exitX=0.49925113341968913;exitY=0.9971098265895953;entryX=0.904482322639306;entryY=0;rounded=0;" edge="1" parent="WIyWlLk6GJQsqaUBKTNV-1" source="FTZSIhkdupkuuKpnyyNk-38" target="FTZSIhkdupkuuKpnyyNk-66">
          <mxGeometry relative="1" as="geometry">
            <Array as="points" />
          </mxGeometry>
        </mxCell>
        <mxCell id="FTZSIhkdupkuuKpnyyNk-107" value="*" style="edgeLabel;resizable=0;align=left;verticalAlign=top;" vertex="1" parent="FTZSIhkdupkuuKpnyyNk-106">
          <mxGeometry x="-1" relative="1" as="geometry" />
        </mxCell>
        <mxCell id="FTZSIhkdupkuuKpnyyNk-108" value="1" style="edgeLabel;resizable=0;align=right;verticalAlign=top;" vertex="1" parent="FTZSIhkdupkuuKpnyyNk-106">
          <mxGeometry x="1" relative="1" as="geometry" />
        </mxCell>
        <mxCell id="FTZSIhkdupkuuKpnyyNk-109" value="belongs_to" style="curved=1;startArrow=none;endArrow=none;exitX=0.5;exitY=0;entryX=0.531;entryY=0.941;rounded=0;exitDx=0;exitDy=0;entryDx=0;entryDy=0;entryPerimeter=0;" edge="1" parent="WIyWlLk6GJQsqaUBKTNV-1" source="FTZSIhkdupkuuKpnyyNk-38" target="FTZSIhkdupkuuKpnyyNk-37">
          <mxGeometry relative="1" as="geometry">
            <Array as="points" />
          </mxGeometry>
        </mxCell>
        <mxCell id="FTZSIhkdupkuuKpnyyNk-110" value="*" style="edgeLabel;resizable=0;align=left;verticalAlign=top;" vertex="1" parent="FTZSIhkdupkuuKpnyyNk-109">
          <mxGeometry x="-1" relative="1" as="geometry" />
        </mxCell>
        <mxCell id="FTZSIhkdupkuuKpnyyNk-111" value="1" style="edgeLabel;resizable=0;align=right;verticalAlign=top;" vertex="1" parent="FTZSIhkdupkuuKpnyyNk-109">
          <mxGeometry x="1" relative="1" as="geometry" />
        </mxCell>
        <mxCell id="FTZSIhkdupkuuKpnyyNk-112" value="" style="curved=1;startArrow=none;endArrow=open;endSize=12;exitX=0.199;exitY=1.024;rounded=0;exitDx=0;exitDy=0;exitPerimeter=0;" edge="1" parent="WIyWlLk6GJQsqaUBKTNV-1" source="FTZSIhkdupkuuKpnyyNk-37" target="FTZSIhkdupkuuKpnyyNk-45">
          <mxGeometry relative="1" as="geometry">
            <Array as="points">
              <mxPoint x="630" y="530" />
            </Array>
          </mxGeometry>
        </mxCell>
        <mxCell id="FTZSIhkdupkuuKpnyyNk-113" value="" style="curved=1;startArrow=none;endArrow=open;endSize=12;exitX=0.922;exitY=0.941;rounded=0;exitDx=0;exitDy=0;exitPerimeter=0;" edge="1" parent="WIyWlLk6GJQsqaUBKTNV-1" source="FTZSIhkdupkuuKpnyyNk-37" target="FTZSIhkdupkuuKpnyyNk-51">
          <mxGeometry relative="1" as="geometry">
            <Array as="points" />
          </mxGeometry>
        </mxCell>
        <mxCell id="FTZSIhkdupkuuKpnyyNk-114" value="" style="curved=1;startArrow=none;endArrow=open;endSize=12;exitX=0.883;exitY=1.066;rounded=0;exitDx=0;exitDy=0;exitPerimeter=0;" edge="1" parent="WIyWlLk6GJQsqaUBKTNV-1" source="FTZSIhkdupkuuKpnyyNk-37" target="FTZSIhkdupkuuKpnyyNk-55">
          <mxGeometry relative="1" as="geometry">
            <Array as="points">
              <mxPoint x="860" y="530" />
            </Array>
          </mxGeometry>
        </mxCell>
        <mxCell id="FTZSIhkdupkuuKpnyyNk-115" value="belongs_to" style="curved=1;startArrow=none;endArrow=none;entryX=0.532;entryY=1.243;rounded=0;entryDx=0;entryDy=0;entryPerimeter=0;" edge="1" parent="WIyWlLk6GJQsqaUBKTNV-1" source="FTZSIhkdupkuuKpnyyNk-66" target="FTZSIhkdupkuuKpnyyNk-64">
          <mxGeometry relative="1" as="geometry">
            <Array as="points" />
          </mxGeometry>
        </mxCell>
        <mxCell id="FTZSIhkdupkuuKpnyyNk-116" value="*" style="edgeLabel;resizable=0;align=left;verticalAlign=top;" vertex="1" parent="FTZSIhkdupkuuKpnyyNk-115">
          <mxGeometry x="-1" relative="1" as="geometry" />
        </mxCell>
        <mxCell id="FTZSIhkdupkuuKpnyyNk-117" value="1" style="edgeLabel;resizable=0;align=right;verticalAlign=top;" vertex="1" parent="FTZSIhkdupkuuKpnyyNk-115">
          <mxGeometry x="1" relative="1" as="geometry" />
        </mxCell>
        <mxCell id="FTZSIhkdupkuuKpnyyNk-118" value="owns" style="curved=1;startArrow=none;endArrow=none;exitX=0.8784288458612293;exitY=0;entryX=0.7257921419550097;entryY=1;rounded=0;" edge="1" parent="WIyWlLk6GJQsqaUBKTNV-1" source="FTZSIhkdupkuuKpnyyNk-80" target="FTZSIhkdupkuuKpnyyNk-0">
          <mxGeometry relative="1" as="geometry">
            <Array as="points">
              <mxPoint x="365" y="520" />
            </Array>
          </mxGeometry>
        </mxCell>
        <mxCell id="FTZSIhkdupkuuKpnyyNk-119" value="1" style="edgeLabel;resizable=0;align=left;verticalAlign=top;" vertex="1" parent="FTZSIhkdupkuuKpnyyNk-118">
          <mxGeometry x="-1" relative="1" as="geometry" />
        </mxCell>
        <mxCell id="FTZSIhkdupkuuKpnyyNk-120" value="1" style="edgeLabel;resizable=0;align=right;verticalAlign=top;" vertex="1" parent="FTZSIhkdupkuuKpnyyNk-118">
          <mxGeometry x="1" relative="1" as="geometry" />
        </mxCell>
      </root>
    </mxGraphModel>
  </diagram>
</mxfile>
